<svg width="67" height="30" viewBox="0 0 67 30" fill="none" xmlns="http://www.w3.org/2000/svg">
<g id="Logo">
<g id="Dez">
<path d="M25.8835 24H19.9975V5.81818H26.07C27.8514 5.81818 29.3814 6.18217 30.6598 6.91016C31.9382 7.63222 32.9177 8.67093 33.5984 10.0263C34.2849 11.3757 34.6282 12.9944 34.6282 14.8825C34.6282 16.7764 34.282 18.404 33.5895 19.7653C32.9029 21.1265 31.9086 22.1741 30.6065 22.908C29.3045 23.636 27.7301 24 25.8835 24ZM22.7408 21.603H25.7326C27.1175 21.603 28.2687 21.3426 29.1861 20.8217C30.1035 20.295 30.79 19.5344 31.2457 18.5401C31.7015 17.5399 31.9293 16.3207 31.9293 14.8825C31.9293 13.4561 31.7015 12.2457 31.2457 11.2514C30.7959 10.2571 30.1242 9.50248 29.2305 8.98757C28.3368 8.47266 27.227 8.2152 25.9013 8.2152H22.7408V21.603Z" fill="black" fill-opacity="0.3"/>
<path d="M43.7036 24.2752C42.3601 24.2752 41.203 23.9882 40.2323 23.4141C39.2676 22.834 38.5219 22.0202 37.9951 20.9727C37.4743 19.9192 37.2139 18.6851 37.2139 17.2706C37.2139 15.8738 37.4743 14.6428 37.9951 13.5774C38.5219 12.5121 39.2558 11.6805 40.1968 11.0827C41.1438 10.485 42.2506 10.1861 43.5171 10.1861C44.2865 10.1861 45.0323 10.3133 45.7544 10.5678C46.4764 10.8223 47.1245 11.2218 47.6986 11.7663C48.2727 12.3108 48.7255 13.0181 49.0569 13.8881C49.3883 14.7522 49.5541 15.8028 49.5541 17.0398V17.9808H38.7142V15.9922H46.9529C46.9529 15.2938 46.8108 14.6753 46.5267 14.1367C46.2426 13.5922 45.8431 13.1631 45.3282 12.8494C44.8192 12.5357 44.2214 12.3789 43.5349 12.3789C42.7892 12.3789 42.1381 12.5624 41.5818 12.9293C41.0313 13.2904 40.6052 13.7638 40.3034 14.3498C40.0074 14.9298 39.8595 15.5601 39.8595 16.2408V17.7944C39.8595 18.7058 40.0193 19.4812 40.3389 20.1204C40.6644 20.7596 41.1172 21.2479 41.6972 21.5852C42.2772 21.9167 42.9549 22.0824 43.7302 22.0824C44.2333 22.0824 44.692 22.0114 45.1063 21.8693C45.5206 21.7214 45.8786 21.5024 46.1805 21.2124C46.4823 20.9223 46.7132 20.5643 46.873 20.1381L49.3854 20.5909C49.1842 21.3307 48.8231 21.9788 48.3023 22.5352C47.7874 23.0856 47.1393 23.5147 46.358 23.8224C45.5827 24.1243 44.6979 24.2752 43.7036 24.2752ZM52.2152 24V22.18L59.6016 12.7962V12.6719H52.4549V10.3636H62.913V12.299L55.8107 21.5675V21.6918H63.1616V24H52.2152Z" fill="black"/>
</g>
<path id="L" d="M17.0025 6L17.0025 24.1818H14.2592L14.2592 8.36151H6.0206L6.0206 6H17.0025Z" fill="#555555"/>
</g>
</svg>
